<?xml version="1.0" encoding="UTF-8" standalone="no"?>
<!-- Created with Inkscape (http://www.inkscape.org/) -->

<svg
   xmlns:osb="http://www.openswatchbook.org/uri/2009/osb"
   xmlns:dc="http://purl.org/dc/elements/1.1/"
   xmlns:cc="http://creativecommons.org/ns#"
   xmlns:rdf="http://www.w3.org/1999/02/22-rdf-syntax-ns#"
   xmlns:svg="http://www.w3.org/2000/svg"
   xmlns="http://www.w3.org/2000/svg"
   xmlns:sodipodi="http://sodipodi.sourceforge.net/DTD/sodipodi-0.dtd"
   xmlns:inkscape="http://www.inkscape.org/namespaces/inkscape"
   width="210mm"
   height="297mm"
   viewBox="0 0 744.09448819 1052.3622047"
   id="svg4904"
   version="1.1"
   inkscape:version="0.91 r13725"
   sodipodi:docname="logonew2.svg">
  <defs
     id="defs4906">
    <linearGradient
       id="linearGradient5508"
       osb:paint="solid">
      <stop
         style="stop-color:#000000;stop-opacity:1;"
         offset="0"
         id="stop5510" />
    </linearGradient>
  </defs>
  <sodipodi:namedview
     id="base"
     pagecolor="#ffffff"
     bordercolor="#666666"
     borderopacity="1.0"
     inkscape:pageopacity="0.0"
     inkscape:pageshadow="2"
     inkscape:zoom="0.35"
     inkscape:cx="1.8935264"
     inkscape:cy="227.23768"
     inkscape:document-units="px"
     inkscape:current-layer="layer1"
     showgrid="false"
     inkscape:window-width="1600"
     inkscape:window-height="919"
     inkscape:window-x="21"
     inkscape:window-y="186"
     inkscape:window-maximized="0" />
  <metadata
     id="metadata4909">
    <rdf:RDF>
      <cc:Work
         rdf:about="">
        <dc:format>image/svg+xml</dc:format>
        <dc:type
           rdf:resource="http://purl.org/dc/dcmitype/StillImage" />
        <dc:title></dc:title>
      </cc:Work>
    </rdf:RDF>
  </metadata>
  <g
     inkscape:label="Layer 1"
     inkscape:groupmode="layer"
     id="layer1">
    <g
       id="layer1-3"
       inkscape:label="Layer 1"
       transform="translate(-318.00002,485.71428)"
       style="stroke:#000000;stroke-opacity:1">
      <path
         style="fill:#ff0000;stroke:#000000;stroke-opacity:1;fill-opacity:1"
         d="M 358.29287,710.32587 C 268.32415,705.7638 189.70528,627.64313 185.38006,537.53568 c -2.74305,-34.54615 5.36952,-70.84477 21.58797,-100.70699 9.23675,5.16959 20.7882,9.00342 16.17441,22.16573 0,50.34412 0,100.68825 0,151.03237 14.83385,8.23174 30.60899,18.28353 44.91074,25.5903 -0.95815,-16.13218 4.73464,-34.19764 -8.82627,-46.48769 -14.64448,-23.98047 -21.71092,-65.9849 8.20643,-81.36749 36.37322,-10.67156 67.40866,25.77192 77.0528,57.35472 6.69734,21.00592 5.15274,50.85948 -17.84356,61.03707 0,14.53818 0,29.07636 0,43.61454 12.78532,7.46735 25.75444,14.6394 38.4,22.33525 -1.32441,5.35308 2.48142,15.96834 -1.575,18.51914 -1.72583,-0.0648 -3.45747,-0.17519 -5.17471,-0.29676 z m 19.28337,-8.98944 c -4.1715,-15.22771 16.59696,-16.06928 24.84988,-23.91777 38.84021,-22.43243 77.67821,-44.87325 116.51688,-67.29137 -0.76355,-17.93859 1.50193,-41.29266 -1.0875,-55.96682 -9.67736,7.43184 -25.47186,9.45979 -27.17919,23.60183 -11.81736,28.23117 -43.52647,60.281 -76.29709,46.35951 -28.23336,-18.90101 -19.02639,-60.05056 -2.99696,-84.12167 13.76608,-22.29798 44.11967,-45.14017 70.38446,-30.15527 4.73672,7.276 9.78449,5.30086 15.7402,0.51838 7.59262,-7.06172 25.89818,-7.79485 21.43683,-21.85997 1.07093,-13.96078 -2.04394,-30.32933 1.37812,-42.93769 5.08062,-1.96841 11.19353,-8.87635 15.67416,-7.65585 39.85758,72.57548 22.62649,171.22016 -40.6164,225.2873 -32.01044,29.04684 -74.54164,46.08342 -117.71978,47.46519 -0.028,-3.10841 -0.055,-6.2186 -0.0836,-9.3258 z M 358.74287,479.95212 c -27.84055,-0.97118 -64.89456,-21.52096 -57.05539,-53.70713 -12.01819,-3.92461 -24.05927,-21.90815 -36.09898,-11.34058 -12.29607,6.29879 -24.59141,15.78532 -36.88791,20.11669 -5.14597,-4.72813 -22.09444,-6.82791 -11.30686,-15.45891 48.2329,-73.35174 151.103,-102.34789 230.48046,-64.78416 33.30887,15.04912 62.07261,40.20631 81.22692,71.32617 -10.19394,8.37828 -20.95556,11.61319 -31.16094,1.00488 -42.26895,-24.29587 -84.39604,-48.84046 -126.77319,-72.94692 -15.47666,9.39991 -35.46255,18.70634 -48.05747,28.56096 10.713,6.41719 20.97635,15.34188 33.97241,9.60537 29.14221,-2.90295 69.76567,7.59146 75.85295,40.65823 1.84425,36.24936 -45.42152,49.69128 -74.192,46.9654 z"
         id="path4223"
         inkscape:connector-curvature="0" />
    </g>
  </g>
</svg>
