<?xml version="1.0" encoding="UTF-8" standalone="no"?>
<!-- Created with Inkscape (http://www.inkscape.org/) -->

<svg
   xmlns:dc="http://purl.org/dc/elements/1.1/"
   xmlns:cc="http://creativecommons.org/ns#"
   xmlns:rdf="http://www.w3.org/1999/02/22-rdf-syntax-ns#"
   xmlns:svg="http://www.w3.org/2000/svg"
   xmlns="http://www.w3.org/2000/svg"
   xmlns:sodipodi="http://sodipodi.sourceforge.net/DTD/sodipodi-0.dtd"
   xmlns:inkscape="http://www.inkscape.org/namespaces/inkscape"
   inkscape:version="0.91 r13725"
   version="1.1"
   id="svg2"
   viewBox="0 0 744.09448819 1052.3622047"
   height="297mm"
   width="210mm"
   sodipodi:docname="Logo DXF.svg">
  <sodipodi:namedview
     inkscape:window-maximized="1"
     inkscape:window-y="-8"
     inkscape:window-x="-8"
     inkscape:window-height="705"
     inkscape:window-width="1366"
     inkscape:snap-global="false"
     showgrid="false"
     inkscape:current-layer="g4149"
     inkscape:document-units="px"
     inkscape:cy="3.2782516"
     inkscape:cx="17.046908"
     inkscape:zoom="1.937225"
     inkscape:pageshadow="2"
     inkscape:pageopacity="0.0"
     borderopacity="1.0"
     bordercolor="#666666"
     pagecolor="#ffffff"
     id="base" />
  <defs
     id="defs4" />
  <metadata
     id="metadata7">
    <rdf:RDF>
      <cc:Work
         rdf:about="">
        <dc:format>image/svg+xml</dc:format>
        <dc:type
           rdf:resource="http://purl.org/dc/dcmitype/StillImage" />
        <dc:title></dc:title>
      </cc:Work>
    </rdf:RDF>
  </metadata>
  <g
     id="layer1"
     inkscape:groupmode="layer"
     inkscape:label="Layer 1">
    <g
       transform="matrix(3.5433191,0,0,3.5433069,-1013.562,128.16595)"
       id="g4149">
      <path
         style="fill:#000000"
         d="M283.24532 285.61582L281.404620137 285.215554492L279.484859844 284.617235312L275.55309875 282.901285L271.739918281 280.617667187L269.96838377 279.309763633L268.3352 277.91608L265.694580469 275.146613906L264.635898535 273.731873652L263.73234625 272.26216625L262.969456934 270.711269941L262.332763906 269.052962969L261.3801 265.30923L261.087660938 262.454426875L261.0782775 258.9969575L261.330017812 255.560694375L261.82095 252.76951L262.80203 249.81789L263.2497175 249.2237125L263.92338 249.21956L265.14909 249.69278125L265.608399375 250.022383906L265.84719 250.34487L266.0969 261.13886L266.25683 271.65929L269.3738 273.68577L271.61486125 275.07807125L272.62593 275.57983L272.74962875 274.931908594L272.7576925 273.73378625L272.6692425 272.551685781L272.5034 271.95183L271.34638 270.43258L270.494809453 268.936429531L269.8771475 267.409798125L269.494207422 265.892312031L269.3468025 264.4235975L269.435746016 263.043280781L269.76185125 261.790988125L270.325931484 260.706345781L271.1288 259.82898L271.796833125 259.362342813L272.483695 259.09838L273.316446875 259.007412187L274.42215 259.05976L275.415747424 259.239683076L276.387870488 259.590014766L278.228023281 260.73243125L279.863267871 262.348063984L281.21426375 264.2979675L282.20167041 266.443196328L282.746147344 268.644805L282.768354043 270.763848047L282.558812146 271.748987002L282.18895 272.66138L281.27783375 273.9339775L279.93741 274.7229L279.04771 275.08711L279.12601 277.27213L279.20421 279.45715L282.30862 281.33106L285.41303 283.20497L285.41303 284.52918L285.388497187 285.378651719L285.1669675 285.76875875L284.526544062 285.810736406L283.24533 285.61582L283.24532 285.61582M287.49227 285.68552L287.195896094 285.32237L286.99084125 284.5737575L286.927065781 283.73471375L287.05453 283.10027L289.656065 281.4144725L295.64253 277.84685L304.90017 272.40355L305.641245 271.75753625L305.88726 270.65448L306.11729125 266.70871375L306.02255 264.50582L304.368795 265.36351125L302.98516 266.38864L302.696728437 267.274632187L301.9603575 268.575485L300.969432813 269.987472812L299.91734 271.20687L298.5461925 272.427209531L297.22642 273.26869875L295.910405 273.755331094L294.55053 273.9111L293.291954219 273.778915312L292.26150875 273.3693225L291.418891406 272.658263437L290.7238 271.62168L290.17317625 270.21973375L290.15926 268.15616L290.39655 265.98678625L291.24056 263.96529L292.29826959 262.192115625L293.558585469 260.678998125L294.957712051 259.457097187L296.43185375 258.5575725L297.91721498 258.01158375L299.350000156 257.850290625L300.666413691 258.104852812L301.80266 258.80643L302.1778975 259.102888125L302.6212575 259.0926375L305.03524 257.69868L306.26529 256.93658L306.26629 255.49908L306.41677 251.8534L306.56604 249.64522L307.59331 249.15626L308.73981 248.6673L309.03026125 249.062299844L309.46265 250.10320625L310.43416 253.25818L310.95044875 255.93317L311.04847 259.6854L310.958219219 262.741152812L310.66427875 265.354235L310.120616406 267.803487187L309.2812 270.36775L308.223341094 272.660703672L306.78963375 274.869375625L305.012777031 276.966238516L302.92547 278.923765L300.560411719 280.714427734L297.95030125 282.310699375L295.127837656 283.685052578L292.12572 284.80996L289.216395 285.5920725L288.206256562 285.724855L287.4921 285.68552L287.49227 285.68552M282.65423 254.28613L281.358726094 253.939379687L280.21333375 253.4794525L279.201837031 252.898524062L278.30802 252.18877L277.521088281 251.35804625L277.01217875 250.545675L276.742907344 249.66830875L276.67489 248.6426L276.69749 247.3554L274.92303 246.36629L272.88211 245.37717L269.50239 247.04897L267.546049844 248.074596719L266.41881125 248.48536125L265.662299531 248.347727656L264.81814 247.72816L264.39715875 247.25730875L264.56219 246.71352L265.481939531 245.588859687L267.12224875 243.975715L269.005083594 242.317900312L270.65241 241.05923L272.722806875 239.826104219L275.141335 238.61506875L277.658353125 237.541671406L280.02422 236.72146L282.60374 236.1056775L285.58238 235.87232L288.52564875 235.86541L290.91517 236.2593L294.334142188 237.274460625L297.7223325 238.7557425L301.030959063 240.678350625L304.21124 243.01749L306.56468625 245.2990925L307.364276094 246.309512812L307.67104 246.95806L307.41097625 247.359080469L306.7938675 247.84885875L306.0643375 248.263162656L305.46701 248.43776L304.841715781 248.238632812L303.04917875 247.3378675L292.5065 241.61112L286.6471 238.52026L286.204065313 238.439577187L285.58899 238.5719075L282.91085 239.793L279.68894 241.52581L279.9792 241.8977075L280.87087 242.48454L281.682108125 242.907779844L282.436365 243.13162375L285.38342 243.25643L288.23979875 243.375865L289.86461 243.81561L291.675581563 244.742895L293.02163 245.84685L293.889328438 247.1130975L294.26525 248.52726L294.113617012 250.005932832L293.446254844 251.339407656L292.335349941 252.491881465L290.85308875 253.42755125L289.071657715 254.110614004L287.063243281 254.505266719L284.900031895 254.575706387L282.65421 254.28613L282.65423 254.28613"
         id="path4147"
         inkscape:connector-curvature="0" />
    </g>
  </g>
</svg>
